<svg xmlns="http://www.w3.org/2000/svg" width="390" height="330" viewBox="0 0 390 330" preserveAspectRatio="xMidYMax meet" aria-hidden="true"><path d="M0 330 V176 Q0 128 46 126 Q62 78 112 84 Q140 44 192 56 Q232 30 276 62 Q326 50 348 98 Q390 100 390 146 V330 Z" fill="#DDEFD8"/><path d="M0 330 V292 Q60 270 130 284 Q200 298 270 280 Q336 266 390 284 V330 Z" fill="#C9E5C4"/><path d="M22 330 V146 Q22 130 38 130 H106 Q122 130 122 146 V330 Z" fill="#F7F3EA"/><path d="M114 136 Q122 138 122 146 V330 H114 Z" fill="#E7E0D2"/><rect x="22" y="180" width="100" height="3" fill="#DDD5C4"/><rect x="102" y="144" width="6" height="24" rx="3" fill="#DDD5C4"/><rect x="30" y="189" width="78" height="141" rx="4" fill="#FFFDF7"/><path d="M30 238 H108 M30 286 H108" stroke="#DDD5C4" stroke-width="3"/><path d="M22 186 L4 194 V330 H22 Z" fill="#E7E0D2"/><path d="M8 250 H20 M8 292 H20" stroke="#DDD5C4" stroke-width="3"/><circle cx="45" cy="224" r="12" fill="#E0583F"/><path d="M41 212 Q45 207 49 212" stroke="#4E8B4F" stroke-width="3" fill="none" stroke-linecap="round"/><rect x="62" y="198" width="17" height="38" rx="5" fill="#EAF1F5"/><rect x="65" y="193" width="11" height="7" rx="2" fill="#5B8DB8"/><rect x="62" y="212" width="17" height="10" fill="#5B8DB8" opacity=".35"/><circle cx="92" cy="226" r="8" fill="#5E9A54"/><circle cx="100" cy="222" r="7" fill="#6FAA5E"/><circle cx="96" cy="215" r="7" fill="#7CB86A"/><rect x="94" y="226" width="5" height="10" rx="2" fill="#8FBF73"/><ellipse cx="40" cy="270" rx="6" ry="8" fill="#FFF4E0"/><ellipse cx="52" cy="270" rx="6" ry="8" fill="#FFF4E0"/><rect x="32" y="274" width="28" height="10" rx="3" fill="#E4CC9E"/><path d="M70 282 L100 254 Q104 258 102 262 L76 286 Q70 288 70 282 Z" fill="#EE8A3A"/><path d="M100 254 Q104 244 110 246 M101 256 Q110 252 112 258" stroke="#5E9A54" stroke-width="3" fill="none" stroke-linecap="round"/><rect x="36" y="304" width="16" height="22" rx="3" fill="#F4E6F0"/><rect x="36" y="300" width="16" height="5" rx="2" fill="#C66D93"/><rect x="56" y="304" width="16" height="22" rx="3" fill="#F4E6F0"/><rect x="56" y="300" width="16" height="5" rx="2" fill="#C66D93"/><rect x="80" y="296" width="22" height="30" rx="5" fill="#F3D27A"/><rect x="80" y="292" width="22" height="7" rx="2" fill="#B98A2E"/><path d="M156 190 L106 176 L106 300 L158 212 Z" fill="#9FCCA4" opacity=".45"/><path d="M184 330 V266 Q184 232 214 226 H240 Q270 232 270 266 V330 Z" fill="#5E9A6C"/><path d="M218 226 L227 240 L236 226 Z" fill="#F7F1E6"/><rect x="219" y="202" width="16" height="26" rx="6" fill="#F0C39F"/><circle cx="255" cy="190" r="6" fill="#F0C39F"/><circle cx="227" cy="186" r="30" fill="#F0C39F"/><circle cx="243" cy="148" r="13" fill="#3B2A22"/><path d="M196 194 Q192 154 227 152 Q262 154 258 188 Q252 172 236 168 Q214 168 206 182 Q200 188 196 194 Z" fill="#3B2A22"/><path d="M217.5 189 Q220.0 184.0 222.5 189" fill="none" stroke="#3B2A22" stroke-width="2.4" stroke-linecap="round"/><path d="M231.5 189 Q234.0 184.0 236.5 189" fill="none" stroke="#3B2A22" stroke-width="2.4" stroke-linecap="round"/><path d="M220.0 197.0 Q227 205.0 234.0 197.0 Z" fill="#8E3B2C"/><circle cx="213.0" cy="196.0" r="4.0" fill="#EE9C86" opacity=".55"/><circle cx="241.0" cy="196.0" r="4.0" fill="#EE9C86" opacity=".55"/><path d="M200 240 L184 258" stroke="#5E9A6C" stroke-width="22" stroke-linecap="round"/><path d="M182 258 L165 218" stroke="#F0C39F" stroke-width="13" stroke-linecap="round"/><g transform="rotate(-14 160 198)"><rect x="148" y="176" width="25" height="44" rx="6" fill="#22302A"/><rect x="151" y="180" width="19" height="36" rx="4" fill="#9FCCA4"/><path d="M154 187 V184 H157 M164 184 H167 V187 M167 209 V212 H164 M157 212 H154 V209" stroke="#2D5E45" stroke-width="1.6" fill="none" stroke-linecap="round"/><rect x="157.5" y="189" width="6" height="18" rx="2" fill="#F3F0E7"/></g><circle cx="164" cy="214" r="8" fill="#F0C39F"/><path d="M294 330 V296 Q294 274 314 270 H330 Q350 274 350 296 V330 Z" fill="#E7A94A"/><circle cx="298" cy="248" r="5" fill="#C98D62"/><circle cx="322" cy="244" r="24" fill="#C98D62"/><circle cx="302" cy="228" r="10" fill="#2A1D17"/><circle cx="312" cy="219" r="11" fill="#2A1D17"/><circle cx="326" cy="217" r="11" fill="#2A1D17"/><circle cx="339" cy="224" r="10" fill="#2A1D17"/><circle cx="346" cy="236" r="8" fill="#2A1D17"/><circle cx="299" cy="240" r="7" fill="#2A1D17"/><path d="M314.21 249 Q316.26 244.72 318.31 249" fill="none" stroke="#3B2A22" stroke-width="1.9679999999999997" stroke-linecap="round"/><path d="M325.69 249 Q327.74 244.72 329.79 249" fill="none" stroke="#3B2A22" stroke-width="1.9679999999999997" stroke-linecap="round"/><path d="M316.26 255.38 Q322 261.94 327.74 255.38 Z" fill="#8E3B2C"/><circle cx="310.52" cy="254.56" r="3.28" fill="#EE9C86" opacity=".55"/><circle cx="333.48" cy="254.56" r="3.28" fill="#EE9C86" opacity=".55"/><path d="M346 288 L356 276" stroke="#E7A94A" stroke-width="15" stroke-linecap="round"/><path d="M356 276 L364 250" stroke="#C98D62" stroke-width="10" stroke-linecap="round"/><rect x="357" y="236" width="15" height="15" rx="6" fill="#C98D62"/><path d="M359.5 238 L358.5 230 M364 237 L364 228.5 M368.5 238 L370 230.5 M371 243 L377 238" stroke="#C98D62" stroke-width="5" stroke-linecap="round"/><path d="M300 300 L284 330" stroke="#C98D62" stroke-width="0"/><path d="M296 286 L284 312 Q288 316 292 312 L304 292 Z" fill="#EE8A3A"/><path d="M302 290 Q304 280 310 280 M300 288 Q296 278 300 274" stroke="#5E9A54" stroke-width="3" fill="none" stroke-linecap="round"/><circle cx="302" cy="296" r="7" fill="#C98D62"/><path transform="translate(186 140) scale(1.1)" d="M0 7 C-2 3 -10 -1 -10 -7 C-10 -12 -4 -14 0 -9 C4 -14 10 -12 10 -7 C10 -1 2 3 0 7 Z" fill="#2D5E45"/><path transform="translate(170 112) scale(0.65)" d="M0 7 C-2 3 -10 -1 -10 -7 C-10 -12 -4 -14 0 -9 C4 -14 10 -12 10 -7 C10 -1 2 3 0 7 Z" fill="#2D5E45"/><path transform="translate(352 196) scale(1.0)" d="M0 7 C-2 3 -10 -1 -10 -7 C-10 -12 -4 -14 0 -9 C4 -14 10 -12 10 -7 C10 -1 2 3 0 7 Z" fill="#2D5E45"/><path transform="translate(280 150) scale(0.6)" d="M0 7 C-2 3 -10 -1 -10 -7 C-10 -12 -4 -14 0 -9 C4 -14 10 -12 10 -7 C10 -1 2 3 0 7 Z" fill="#5E9A6C"/></svg>